<svg width="501" height="145" viewBox="0 0 501 145" fill="none" xmlns="http://www.w3.org/2000/svg">
<g filter="url(#filter0_b_1078_49943)">
<rect width="501" height="145" rx="20" fill="url(#paint0_radial_1078_49943)" fill-opacity="0.65"/>
<rect x="0.75" y="0.75" width="499.5" height="143.5" rx="19.25" stroke="url(#paint1_linear_1078_49943)" stroke-opacity="0.3" stroke-width="1.5" style="mix-blend-mode:overlay"/>
</g>
<rect x="346" y="47" width="114" height="50" rx="10" fill="black"/>
<path d="M371.056 67.662L374.234 77H376.054L378.014 71.33L379.974 77H381.794L384.972 67.662H382.732L380.744 73.85L378.756 67.662H377.272L375.284 73.85L373.296 67.662H371.056ZM385.678 70.756V77H387.694V70.756H385.678ZM385.51 68.096C385.51 68.754 386.028 69.272 386.686 69.272C387.344 69.272 387.862 68.754 387.862 68.096C387.862 67.438 387.344 66.92 386.686 66.92C386.028 66.92 385.51 67.438 385.51 68.096ZM392.725 72.38V70.756H391.479V68.74H389.463V70.756H388.763V72.38H389.463V77H391.479V72.38H392.725ZM393.647 77H395.663V73.878C395.663 73.57 395.677 72.968 396.083 72.576C396.195 72.464 396.447 72.268 396.881 72.268C397.175 72.268 397.483 72.366 397.665 72.548C397.987 72.856 398.001 73.36 398.001 73.794V77H400.017V73.038C400.017 72.562 399.975 71.792 399.401 71.218C398.855 70.658 398.127 70.588 397.637 70.588C397.189 70.588 396.839 70.63 396.419 70.854C396.181 70.98 395.915 71.19 395.663 71.498V66.794H393.647V77ZM408.393 66.794H406.377V71.456C405.873 70.77 405.117 70.546 404.431 70.546C403.577 70.546 402.807 70.868 402.261 71.386C401.659 71.96 401.281 72.814 401.281 73.85C401.281 74.816 401.617 75.712 402.261 76.356C402.807 76.916 403.479 77.21 404.403 77.21C405.509 77.21 406.069 76.692 406.377 76.244V77H408.393V66.794ZM404.921 72.282C405.355 72.282 405.733 72.408 406.055 72.744C406.293 72.996 406.503 73.36 406.503 73.892C406.503 74.41 406.279 74.788 406.041 75.012C405.719 75.32 405.271 75.474 404.893 75.474C404.543 75.474 404.151 75.334 403.843 75.04C403.549 74.76 403.353 74.354 403.353 73.892C403.353 73.388 403.549 72.982 403.843 72.702C404.165 72.394 404.515 72.282 404.921 72.282ZM410.011 77H412.027V74.466C412.027 73.934 412.069 73.262 412.517 72.786C412.769 72.52 413.091 72.366 413.525 72.366C413.875 72.366 414.169 72.45 414.435 72.59L414.547 70.7C414.323 70.63 414.141 70.602 413.889 70.602C413.497 70.602 413.147 70.658 412.811 70.868C412.489 71.064 412.209 71.386 412.027 71.736V70.756H410.011V77ZM419.967 71.456C419.393 70.672 418.539 70.546 418.007 70.546C417.139 70.546 416.383 70.854 415.837 71.4C415.263 71.974 414.871 72.87 414.871 73.92C414.871 74.746 415.123 75.558 415.781 76.258C416.467 76.986 417.223 77.21 418.119 77.21C418.637 77.21 419.421 77.084 419.967 76.244V77H421.983V70.756H419.967V71.456ZM418.511 72.282C418.875 72.282 419.323 72.422 419.631 72.716C419.925 72.996 420.093 73.416 420.093 73.864C420.093 74.396 419.869 74.788 419.603 75.04C419.337 75.306 418.959 75.474 418.553 75.474C418.077 75.474 417.643 75.278 417.363 74.984C417.181 74.788 416.943 74.424 416.943 73.864C416.943 73.304 417.195 72.94 417.405 72.73C417.671 72.464 418.077 72.282 418.511 72.282ZM428.726 73.444L430.294 77H431.554L434.662 70.756H432.45L430.84 74.074L429.258 70.672H428.194L426.612 74.074L425.002 70.756H422.79L425.898 77H427.158L428.726 73.444Z" fill="white"/>
<path d="M132.244 51.662H127.064V61H132.244V59.432H128.884V56.884H132.104V55.316H128.884V53.23H132.244V51.662ZM138.105 55.722C137.531 54.826 136.621 54.742 136.159 54.742C134.367 54.742 133.149 56.17 133.149 57.962C133.149 59.74 134.381 61.196 136.243 61.196C136.677 61.196 137.489 61.098 138.105 60.216V61H139.813V54.938H138.105V55.722ZM136.593 56.254C137.573 56.254 138.273 56.996 138.273 57.962C138.273 58.928 137.573 59.684 136.593 59.684C135.613 59.684 134.913 58.928 134.913 57.962C134.913 56.996 135.613 56.254 136.593 56.254ZM141.441 61H143.149V58.088C143.149 57.668 143.163 57.15 143.485 56.744C143.821 56.324 144.297 56.254 144.619 56.254C144.969 56.254 145.193 56.324 145.417 56.478L145.641 54.882C145.445 54.812 145.207 54.742 144.913 54.742C144.507 54.742 144.171 54.84 143.905 55.008C143.779 55.078 143.415 55.33 143.149 55.848V54.938H141.441V61ZM146.486 61H148.194V57.906C148.194 57.556 148.208 57.122 148.46 56.73C148.712 56.352 149.062 56.198 149.51 56.198C149.678 56.198 150.042 56.226 150.308 56.506C150.616 56.828 150.63 57.36 150.63 57.696V61H152.338V57.192C152.338 56.604 152.282 56.002 151.862 55.484C151.386 54.896 150.602 54.742 150.07 54.742C149.09 54.742 148.516 55.274 148.194 55.722V54.938H146.486V61ZM153.964 54.938V61H155.672V54.938H153.964ZM153.796 52.376C153.796 52.936 154.258 53.398 154.818 53.398C155.378 53.398 155.84 52.936 155.84 52.376C155.84 51.816 155.378 51.354 154.818 51.354C154.258 51.354 153.796 51.816 153.796 52.376ZM157.3 61H159.008V57.906C159.008 57.556 159.022 57.122 159.274 56.73C159.526 56.352 159.876 56.198 160.324 56.198C160.492 56.198 160.856 56.226 161.122 56.506C161.43 56.828 161.444 57.36 161.444 57.696V61H163.152V57.192C163.152 56.604 163.096 56.002 162.676 55.484C162.2 54.896 161.416 54.742 160.884 54.742C159.904 54.742 159.33 55.274 159.008 55.722V54.938H157.3V61ZM169.399 55.722C169.161 55.358 168.629 54.742 167.495 54.742C166.683 54.742 165.941 55.036 165.409 55.554C164.821 56.128 164.471 57.01 164.471 57.962C164.471 59.138 164.989 59.922 165.437 60.37C166.025 60.944 166.725 61.196 167.537 61.196C167.999 61.196 168.811 61.084 169.399 60.188V61.042C169.399 61.532 169.357 62.008 168.965 62.386C168.741 62.596 168.419 62.764 167.929 62.764C167.691 62.764 167.229 62.75 166.893 62.442C166.697 62.274 166.543 61.994 166.473 61.714H164.625C164.765 62.4 165.129 63.114 165.605 63.52C165.997 63.87 166.697 64.22 167.873 64.22C169.119 64.22 169.847 63.786 170.267 63.366C171.023 62.61 171.107 61.644 171.107 60.72V54.938H169.399V55.722ZM167.915 56.254C168.377 56.254 168.769 56.394 169.105 56.744C169.343 56.996 169.595 57.388 169.595 57.962C169.595 58.452 169.399 58.942 169.049 59.264C168.755 59.53 168.335 59.684 167.915 59.684C167.509 59.684 167.047 59.544 166.683 59.152C166.431 58.886 166.235 58.494 166.235 57.962C166.235 57.332 166.501 56.926 166.781 56.674C166.991 56.478 167.369 56.254 167.915 56.254ZM176.88 55.386C176.11 54.798 175.396 54.742 174.948 54.742C174.458 54.742 173.842 54.798 173.366 55.176C173.016 55.47 172.736 55.96 172.736 56.548C172.736 57.038 172.918 57.416 173.198 57.71C173.562 58.088 174.066 58.284 174.5 58.438L174.892 58.578C175.116 58.662 175.424 58.816 175.424 59.194C175.424 59.614 175.06 59.852 174.584 59.852C174.08 59.852 173.576 59.544 173.24 59.152L172.344 60.188C172.722 60.594 173.436 61.196 174.696 61.196C175.438 61.196 176.026 61 176.516 60.552C177.006 60.104 177.188 59.558 177.188 59.012C177.188 58.62 177.062 58.256 176.88 58.004C176.53 57.528 175.816 57.29 175.34 57.136L174.934 57.01C174.458 56.856 174.388 56.618 174.388 56.464C174.388 56.17 174.64 55.974 175.046 55.974C175.228 55.974 175.634 56.002 176.04 56.38L176.88 55.386Z" fill="#4F4F4F"/>
<path d="M137.28 73.992H134.472L126.528 85.584V86.976H134.352V90H137.28V86.976H139.152V84.48H137.28V73.992ZM130.224 84.48L134.352 78.384V84.48H130.224ZM151.531 73.992H144.139L142.243 82.392C143.443 81.672 144.571 81.36 145.699 81.36C146.467 81.36 147.379 81.456 148.195 82.176C148.867 82.776 149.131 83.472 149.131 84.384C149.131 85.416 148.747 86.232 148.291 86.712C147.907 87.12 147.163 87.672 145.843 87.672C145.075 87.672 144.307 87.504 143.515 87.072C142.795 86.688 142.291 86.208 141.859 85.632L140.827 88.32C141.403 88.872 142.123 89.376 142.771 89.688C143.995 90.288 145.363 90.36 146.227 90.36C147.931 90.36 149.347 90 150.619 88.728C151.723 87.624 152.251 86.28 152.251 84.552C152.251 83.592 152.107 82.008 150.835 80.712C149.923 79.776 148.411 79.104 146.707 79.104C146.299 79.104 145.939 79.152 145.627 79.2L146.203 76.68H151.531V73.992ZM160.66 90.36C163.852 90.36 166.852 87.504 166.852 82.008C166.852 76.488 163.852 73.632 160.66 73.632C157.468 73.632 154.468 76.488 154.468 81.984C154.468 87.504 157.468 90.36 160.66 90.36ZM160.66 76.32C162.004 76.32 163.732 77.832 163.732 81.984C163.732 86.16 162.028 87.672 160.66 87.672C159.292 87.672 157.588 86.16 157.588 81.984C157.588 77.832 159.316 76.32 160.66 76.32ZM167.58 93.144L169.428 93.36L172.812 87L170.124 86.688L167.58 93.144ZM182.175 90.36C185.367 90.36 188.367 87.504 188.367 82.008C188.367 76.488 185.367 73.632 182.175 73.632C178.983 73.632 175.983 76.488 175.983 81.984C175.983 87.504 178.983 90.36 182.175 90.36ZM182.175 76.32C183.519 76.32 185.247 77.832 185.247 81.984C185.247 86.16 183.543 87.672 182.175 87.672C180.807 87.672 179.103 86.16 179.103 81.984C179.103 77.832 180.831 76.32 182.175 76.32ZM195.816 90.36C199.008 90.36 202.008 87.504 202.008 82.008C202.008 76.488 199.008 73.632 195.816 73.632C192.624 73.632 189.624 76.488 189.624 81.984C189.624 87.504 192.624 90.36 195.816 90.36ZM195.816 76.32C197.16 76.32 198.888 77.832 198.888 81.984C198.888 86.16 197.184 87.672 195.816 87.672C194.448 87.672 192.744 86.16 192.744 81.984C192.744 77.832 194.472 76.32 195.816 76.32ZM209.457 90.36C212.649 90.36 215.649 87.504 215.649 82.008C215.649 76.488 212.649 73.632 209.457 73.632C206.265 73.632 203.265 76.488 203.265 81.984C203.265 87.504 206.265 90.36 209.457 90.36ZM209.457 76.32C210.801 76.32 212.529 77.832 212.529 81.984C212.529 86.16 210.825 87.672 209.457 87.672C208.089 87.672 206.385 86.16 206.385 81.984C206.385 77.832 208.113 76.32 209.457 76.32ZM220.367 90V82.224L226.883 90H229.295V77.994H226.523V85.734L220.007 77.994H217.595V90H220.367ZM237.699 85.68H240.597C240.363 86.562 239.823 87.03 239.733 87.102C239.463 87.336 238.833 87.75 237.645 87.75C236.727 87.75 235.917 87.534 235.215 86.814C234.711 86.31 234.207 85.428 234.207 84.06C234.207 82.944 234.567 81.918 235.233 81.216C235.809 80.604 236.619 80.244 237.717 80.244C238.401 80.244 239.013 80.424 239.553 80.82C240.021 81.162 240.381 81.648 240.615 82.116L243.117 80.766C242.685 80.01 241.983 79.164 241.173 78.624C240.057 77.886 238.797 77.724 237.807 77.724C236.385 77.724 234.567 77.94 233.091 79.47C232.083 80.496 231.363 82.062 231.363 84.024C231.363 86.418 232.425 87.876 233.127 88.596C234.531 90.036 236.079 90.27 237.519 90.27C238.941 90.27 240.471 90.018 241.803 88.632C243.135 87.246 243.657 85.032 243.657 83.574V83.448H237.699V85.68ZM248.492 90V82.224L255.008 90H257.42V77.994H254.648V85.734L248.132 77.994H245.72V90H248.492Z" fill="black"/>
<rect x="38.75" y="42.75" width="58.5" height="58.5" rx="11.25" fill="white" stroke="black" stroke-width="1.5"/>
<path fill-rule="evenodd" clip-rule="evenodd" d="M71.7382 60.5196C72.8888 60.1909 74.088 60.8571 74.4167 62.0077C74.472 62.2012 74.5001 62.4016 74.5001 62.6029V64.4167H76.6667C77.8634 64.4167 78.8334 65.3867 78.8334 66.5834V79.5834C78.8334 80.78 77.8634 81.75 76.6667 81.75H59.3334C58.1368 81.75 57.1667 80.78 57.1667 79.5834H57.1957C57.1764 79.4669 57.1667 79.3488 57.1667 79.2305V66.3172C57.1667 65.3498 57.808 64.4996 58.7382 64.2339L71.7382 60.5196ZM65.9851 79.5834H76.6667V70.9167H74.5001V75.5162C74.5001 76.4836 73.8588 77.3337 72.9286 77.5995L65.9851 79.5834ZM76.6667 66.5834V68.75H74.5001V66.5834H76.6667ZM59.3334 66.3172V79.2305L72.3334 75.5162V62.6029L59.3334 66.3172ZM70.1667 68.75C70.1667 69.3483 69.6817 69.8334 69.0834 69.8334C68.4851 69.8334 68.0001 69.3483 68.0001 68.75C68.0001 68.1517 68.4851 67.6667 69.0834 67.6667C69.6817 67.6667 70.1667 68.1517 70.1667 68.75Z" fill="black"/>
<defs>
<filter id="filter0_b_1078_49943" x="-10" y="-10" width="521" height="165" filterUnits="userSpaceOnUse" color-interpolation-filters="sRGB">
<feFlood flood-opacity="0" result="BackgroundImageFix"/>
<feGaussianBlur in="BackgroundImage" stdDeviation="5"/>
<feComposite in2="SourceAlpha" operator="in" result="effect1_backgroundBlur_1078_49943"/>
<feBlend mode="normal" in="SourceGraphic" in2="effect1_backgroundBlur_1078_49943" result="shape"/>
</filter>
<radialGradient id="paint0_radial_1078_49943" cx="0" cy="0" r="1" gradientUnits="userSpaceOnUse" gradientTransform="translate(-97.2529 -24.65) rotate(16.6899) scale(590.72 281.679)">
<stop stop-color="white"/>
<stop offset="1" stop-color="white" stop-opacity="0"/>
</radialGradient>
<linearGradient id="paint1_linear_1078_49943" x1="527.524" y1="163.125" x2="477.95" y2="-73.1699" gradientUnits="userSpaceOnUse">
<stop stop-color="white"/>
<stop offset="1" stop-color="white" stop-opacity="0"/>
</linearGradient>
</defs>
</svg>
